<svg xmlns="http://www.w3.org/2000/svg" id="Layer_1" viewBox="0 0 42 44.85">
    <defs />
    <path fill="rgba(16,117,219,.35)" stroke-width="0"
        d="M4.8 33.05c.56 1.19 1.49 2.31 2.55 3.32.08.07.17.12.24.19.15.13.3.27.43.41.47.41.96.8 1.44 1.17 2.29 1.37 4.69 2.5 7.28 3.17.75.11 1.54.2 2.38.3.21.03.42.08.63.12V9.06a2.5 2.5 0 0 0-2.5-2.5H6.52c-.09.24-.2.48-.32.7-.31.58-.74 1.05-1.29 1.4 0 0-.02.01-.03.02-.08.15-.15.3-.24.44-.33.57-.83 1.05-1.22 1.57-.03.04-.05.06-.07.09 0 .02-.02.03-.03.06-.87 1.82-1.62 3.64-2.33 5.54v10.05c.47 1.68 1.23 3.19 2.12 4.63.66.42 1.25 1.07 1.68 1.99Z" />
    <path fill="none" stroke="#0e83fe" stroke-linecap="round" stroke-width="2"
        d="M37.25 21H26m0 0 5-5m-5 5 5 5" />
    <path
        fill="#0e83fe"
        d="M1.73 24.97c.12.22.2.45.27.69V14.55v.02c0 .02 0 .04-.01.06v.01c-.02.11-.05.22-.08.33-.02.13-.06.26-.11.38-.01.04-.03.07-.04.11-.08.38-.22.75-.4 1.12 0 .13 0 .26-.02.39 0 .04 0 .08-.01.12 0 .1-.01.2-.03.3-.21 2.33-.23 4.52-.03 6.65.19.29.35.59.46.93ZM6.75 9h6.5c.69 0 1.25-.56 1.25-1.25v-.19h2.75c.83 0 1.5.67 1.5 1.5v32c.36-.01.73 0 1.12.07l.88-.02V26H21c.69 0 1.25-.56 1.25-1.25v-7.5c0-.69-.56-1.25-1.25-1.25h-.25V9.06c0-1.93-1.57-3.5-3.5-3.5H8.16c-.2.25-.42.47-.68.67-.01 0-.02.02-.03.03-.05.07-.1.13-.15.2-.19.19-.4.36-.61.51-.02.01-.03.03-.04.04-.07.07-.12.15-.2.22-.21.33-.46.64-.75.91-.02.02-.04.04-.06.07.18.45.59.79 1.11.79Z"
        class="cls-5" />
    <path fill="none" stroke="#0e83fe" stroke-width="2"
        d="M7.12 6.6C10.72 3.13 15.61 1 21 1c11.05 0 20 8.95 20 20s-8.95 20-20 20S1 32.05 1 21c0-5.66 2.35-10.76 6.12-14.4" />
    <path fill="#0e83fe" stroke-width="0" d="m13.76 44.85 6.68-.59" />
</svg>