<svg fill="none" viewBox="0 0 84 84" xmlns="http://www.w3.org/2000/svg">
    <g clip-rule="evenodd" fill="#45aef5" fill-rule="evenodd">
        <path
            d="m46 24h-34v22h18v6c0 5.6005 0 8.4008 1.0899 10.5399.9588 1.8816 2.4886 3.4114 4.3702 4.3702 2.1391 1.0899 4.9394 1.0899 10.5399 1.0899h22l5.1112 4.2594c1.6663 1.3886 2.4995 2.0828 3.1709 2.2483 1.3731.3384 2.7961-.3281 3.4152-1.5995.3027-.6218.3027-1.7063.3027-3.8754v-1.0328-22c0-5.6005 0-8.4008-1.0899-10.5399-.9588-1.8816-2.4886-3.4114-4.3702-4.3702-2.1391-1.0899-4.9394-1.0899-10.5399-1.0899h-18z"
            opacity=".32" />
        <path
            d="m54 32c0-5.6005 0-8.4008-1.0899-10.5399-.9588-1.8816-2.4886-3.4114-4.3702-4.3702-2.1391-1.0899-4.9394-1.0899-10.5399-1.0899h-18c-5.6005 0-8.4008 0-10.53991 1.0899-1.88161.9588-3.41142 2.4886-4.37015 4.3702-1.08994 2.1391-1.08994 4.9394-1.08994 10.5399v22 1.8603c0 2.4115 0 3.6173.32698 4.259.66995 1.3149 2.19662 1.9472 3.60007 1.4912.68499-.2225 1.53759-1.0751 3.24285-2.7804l4.8301-4.8301h22c5.6005 0 8.4008 0 10.5399-1.0899 1.8816-.9588 3.4114-2.4886 4.3702-4.3702 1.0899-2.1391 1.0899-4.9394 1.0899-10.5399zm-36 6.5c1.933 0 3.5-1.567 3.5-3.5s-1.567-3.5-3.5-3.5-3.5 1.567-3.5 3.5 1.567 3.5 3.5 3.5zm11 0c1.933 0 3.5-1.567 3.5-3.5s-1.567-3.5-3.5-3.5-3.5 1.567-3.5 3.5 1.567 3.5 3.5 3.5zm14.5-3.5c0 1.933-1.567 3.5-3.5 3.5s-3.5-1.567-3.5-3.5 1.567-3.5 3.5-3.5 3.5 1.567 3.5 3.5z" />
    </g>
</svg>