<svg xmlns="http://www.w3.org/2000/svg" fill="none" viewBox="0 0 56 56">
    <g id="28 / ic-globe-28" fill="#45AEF5">
        <g id="Shape">
            <path
                d="M33.886 41.843q-1.394.988-2.943.988-1.774 0-2.695-.92-.898-.922-1.258-2.337a15 15 0 0 1-.382-2.987q-.022-1.55-.022-2.808 0-1.617-1.146-2.65-1.122-1.056-2.875-1.056-2.852 0-4.424-1.55t-1.573-4.312q0-2.134 1.258-3.908t3.347-2.853q2.111-1.078 4.627-1.078 1.123 0 2.246.314 1.146.293 2.066.584.944.293 1.46.293.45 0 .697-.472.246-.494.247-1.19 0-.495-.472-1.101-.45-.63-1.146-1.056-.695-.45-1.415-.45a.43.43 0 0 0-.314.113q-.09.09-.135.315a1.32 1.32 0 0 1-.314.83q-.27.315-.831.315-.83 0-1.438-.36-.607-.38-1.123-.763-.495-.381-.988-.382-.495 0-.809.427t-.674.988a3.5 3.5 0 0 1-.898.989q-.54.426-1.527.426-.92 0-1.46-.516-.54-.517-.54-1.348 0-.675.36-1.19.36-.518.831-1.056.494-.561.854-1.303t.359-1.842q0-1.123.898-2.223c.094-.117.213-.264.349-.428C12.527 8.884 5.5 17.621 5.5 28c0 12.426 10.074 22.5 22.5 22.5 11.754 0 21.403-9.013 22.413-20.505-.713-.085-1.896-1.147-2.4-1.966a12.8 12.8 0 0 1-1.212-2.695q-.45-1.415-.786-2.403-.315-1.011-.742-1.011a.49.49 0 0 0-.404.202q-.157.203-.382.404-.224.18-.674.18-.516 0-1.19-.472a19 19 0 0 1-1.348-1.078q-.674-.63-1.28-1.1-.584-.472-.966-.472-.426 0-.786.404-.337.404-.337.944 0 .426.697.92.696.495 1.594 1.101.921.585 1.617 1.258.697.65.697 1.393 0 .965-.607 1.841-.584.875-1.19 1.55-.584.675-.584 1.078 0 .854.112 2.157.135 1.28-.719 2.672-.336.563-1.145 1.842a26 26 0 0 1-1.932 2.695 13.4 13.4 0 0 1-2.56 2.404M35.615 12.464q.382-.225.988-.225.36 0 .72.247.381.225.987.225a.79.79 0 0 0 .63-.292q.247-.315.247-.764 0-.786-.787-1.325-.786-.54-1.976-.539-1.393 0-2.156.45-.764.426-.764 1.235 0 .538.337.875.36.315.876.315.54 0 .898-.202"></path>
        </g>
        <path id="Shape_2" fill-rule="evenodd"
            d="M33.886 41.843q-1.394.988-2.943.988-1.774 0-2.695-.92-.898-.922-1.258-2.337a15 15 0 0 1-.382-2.987 195 195 0 0 1-.022-2.808q0-1.617-1.146-2.65-1.122-1.056-2.875-1.056-2.852 0-4.424-1.55t-1.573-4.312q0-2.134 1.258-3.908t3.347-2.853q2.111-1.078 4.627-1.078 1.123 0 2.246.315 1.146.291 2.066.583.944.293 1.46.293.45 0 .697-.472.246-.494.247-1.19 0-.495-.472-1.101-.45-.63-1.146-1.056-.695-.45-1.415-.45a.43.43 0 0 0-.314.113q-.09.09-.135.315a1.32 1.32 0 0 1-.314.83q-.27.315-.831.315-.83 0-1.438-.36-.607-.38-1.123-.763-.495-.382-.988-.382-.495 0-.809.427t-.674.988a3.5 3.5 0 0 1-.898.989q-.54.426-1.527.426-.92 0-1.46-.516-.54-.517-.54-1.348 0-.675.36-1.19.36-.518.831-1.056.494-.561.854-1.303t.359-1.841q0-1.124.898-2.224c.094-.117.213-.264.349-.428A22.5 22.5 0 0 1 28 5.5c12.426 0 22.5 10.074 22.5 22.5q0 1.008-.087 1.995c-.713-.085-1.896-1.146-2.4-1.966a12.8 12.8 0 0 1-1.212-2.695q-.45-1.415-.786-2.403-.315-1.011-.742-1.011a.49.49 0 0 0-.404.202q-.157.203-.382.404-.224.18-.674.18-.516 0-1.19-.472a19 19 0 0 1-1.348-1.078q-.674-.629-1.28-1.1-.584-.472-.966-.472-.426 0-.786.404-.337.404-.337.944 0 .426.697.92.696.495 1.594 1.101.921.585 1.617 1.258.697.65.697 1.393 0 .965-.607 1.841-.584.875-1.19 1.55-.584.675-.584 1.078 0 .854.112 2.157.135 1.28-.719 2.672-.336.563-1.145 1.842a26 26 0 0 1-1.932 2.696 13.4 13.4 0 0 1-2.56 2.403m1.73-29.38q.381-.224.987-.224.36 0 .72.247.381.225.987.225a.79.79 0 0 0 .63-.292q.247-.315.247-.764 0-.785-.787-1.325-.786-.54-1.976-.539-1.393 0-2.156.45-.764.426-.764 1.235 0 .539.337.876.36.315.876.314.54 0 .898-.202"
            clip-rule="evenodd" opacity="0.32"></path>
    </g>
</svg>