<svg xmlns="http://www.w3.org/2000/svg" fill="none" viewBox="0 0 56 56">
    <g id="28 / ic-lock-28" fill="#45AEF5">
        <g id="Shape" opacity="0.32">
            <path fill-rule="evenodd"
                d="M36 14v10h6V14c0-7.732-6.268-14-14-14S14 6.268 14 14v10h6V14a8 8 0 1 1 16 0"
                clip-rule="evenodd"></path>
            <path d="M28 30a3 3 0 0 0-3 3v4a3 3 0 1 0 6 0v-4a3 3 0 0 0-3-3"></path>
        </g>
        <path id="Shape_2" fill-rule="evenodd"
            d="M6 34.8c0-4.48 0-6.72.872-8.432a8 8 0 0 1 3.496-3.496C12.08 22 14.32 22 18.8 22h18.4c4.48 0 6.72 0 8.432.872a8 8 0 0 1 3.496 3.496C50 28.08 50 30.32 50 34.8v4.4c0 4.48 0 6.72-.872 8.432a8 8 0 0 1-3.496 3.496C43.92 52 41.68 52 37.2 52H18.8c-4.48 0-6.72 0-8.432-.872a8 8 0 0 1-3.496-3.496C6 45.92 6 43.68 6 39.2zM28 30a3 3 0 0 0-3 3v4a3 3 0 1 0 6 0v-4a3 3 0 0 0-3-3"
            clip-rule="evenodd"></path>
    </g>
</svg>