<svg xmlns="http://www.w3.org/2000/svg" fill="none" viewBox="0 0 56 56">
    <g id="28 / ic-shield-28" fill="#45AEF5" fill-rule="evenodd" clip-rule="evenodd">
        <path id="Shape"
            d="M34.747 6.71C31.447 4.897 29.798 3.99 28 3.99s-3.448.907-6.747 2.722l-9.108 5.01c-2.021 1.11-3.031 1.666-3.588 2.608S8 16.424 8 18.73V31c0 11.149 9.994 17.118 18.166 19.513a6.5 6.5 0 0 0 3.668 0C38.007 48.118 48 42.15 48 31V18.73c0-2.306 0-3.459-.557-4.4-.557-.943-1.567-1.498-3.588-2.61zm2.374 19.411a3 3 0 1 0-4.242-4.242L25 29.757l-2.879-2.878a3 3 0 1 0-4.242 4.242l5 5a3 3 0 0 0 4.242 0z"></path>
        <path id="Shape_2"
            d="M37.121 21.879a3 3 0 0 1 0 4.242l-10 10a3 3 0 0 1-4.242 0l-5-5a3 3 0 1 1 4.242-4.242L25 29.757l7.879-7.878a3 3 0 0 1 4.242 0"
            opacity="0.32"></path>
    </g>
</svg>