<svg xmlns="http://www.w3.org/2000/svg" fill="none" viewBox="0 0 38 38">
    <g clip-path="url(#clip0_674_147)">
        <path fill="#0098EA"
            d="M19 38.001c10.493 0 19-8.507 19-19s-8.507-19-19-19-19 8.507-19 19 8.507 19 19 19"></path>
        <path fill="#fff"
            d="M25.488 10.605H12.513c-2.386 0-3.898 2.573-2.698 4.654l8.008 13.88a1.36 1.36 0 0 0 2.355 0l8.01-13.88c1.198-2.077-.314-4.654-2.698-4.654zm-7.672 14.372L16.072 21.6l-4.208-7.526a.735.735 0 0 1 .647-1.099h5.304v12.002zm8.317-10.904-4.206 7.53-1.744 3.374V12.974h5.303c.582 0 .925.618.647 1.1"></path>
    </g>
    <defs>
        <clipPath id="clip0_674_147">
            <rect width="38" height="38" fill="#fff" rx="19"></rect>
        </clipPath>
    </defs>
</svg>