<svg xmlns="http://www.w3.org/2000/svg" fill="none" viewBox="0 0 38 38">
    <path fill="#53AE94"
        d="M19 0c10.493 0 19 8.507 19 19s-8.507 19-19 19S0 29.495 0 19 8.506 0 19 0"></path>
    <path fill="#fff"
        d="M21.345 16.468v-2.826h6.463V9.335h-17.6v4.307h6.464v2.824c-5.253.241-9.203 1.282-9.203 2.528 0 1.247 3.952 2.287 9.203 2.53v9.054h4.674v-9.055c5.244-.242 9.186-1.282 9.186-2.527s-3.942-2.285-9.186-2.527m0 4.287v-.002c-.131.008-.809.05-2.318.05-1.206 0-2.054-.035-2.353-.05v.003c-4.642-.206-8.106-1.014-8.106-1.98 0-.968 3.465-1.775 8.106-1.981v3.156c.304.02 1.173.072 2.373.072 1.441 0 2.166-.06 2.3-.072v-3.156c4.631.206 8.088 1.015 8.088 1.979s-3.458 1.773-8.089 1.98"></path>
</svg>